<?xml version="1.0" encoding="utf-8"?>
<!-- Generator: Adobe Illustrator 26.0.2, SVG Export Plug-In . SVG Version: 6.00 Build 0)  -->
<svg version="1.1"
	 id="svg3797" xmlns:cc="http://creativecommons.org/ns#" xmlns:dc="http://purl.org/dc/elements/1.1/" xmlns:inkscape="http://www.inkscape.org/namespaces/inkscape" xmlns:rdf="http://www.w3.org/1999/02/22-rdf-syntax-ns#" xmlns:sodipodi="http://sodipodi.sourceforge.net/DTD/sodipodi-0.dtd" xmlns:svg="http://www.w3.org/2000/svg"
	 xmlns="http://www.w3.org/2000/svg" xmlns:xlink="http://www.w3.org/1999/xlink" x="0px" y="0px" viewBox="0 0 38 16"
	 style="enable-background:new 0 0 38 16;" xml:space="preserve">
<style type="text/css">
	.st0{fill:#FFFFFF;}
</style>
<sodipodi:namedview  bordercolor="#666666" borderopacity="1.0" id="base" inkscape:current-layer="layer1" inkscape:cx="15.936484" inkscape:cy="7.769728" inkscape:document-units="px" inkscape:grid-bbox="true" inkscape:pageopacity="0.0" inkscape:pageshadow="2" inkscape:window-height="1001" inkscape:window-maximized="1" inkscape:window-width="1920" inkscape:window-x="-9" inkscape:window-y="-9" inkscape:zoom="11.197802" pagecolor="#ffffff" showgrid="true">
	<inkscape:grid  empspacing="5" enabled="true" id="grid3805" snapvisiblegridlinesonly="true" type="xygrid" visible="true">
		</inkscape:grid>
</sodipodi:namedview>
<g>
	<g>
		<g>
			<path class="st0" d="M1.1,12.4c-0.2,0-0.4-0.2-0.4-0.4V5.3C0.7,5.1,0.9,5,1.1,5h2.9c0.7,0,1.3,0.2,1.7,0.7c0.4,0.4,0.6,1,0.6,1.8
				c0,0.8-0.2,1.4-0.6,1.8c-0.4,0.5-1,0.7-1.9,0.7H3.3V12c0,0.2-0.2,0.4-0.4,0.4H1.1z M3.3,7.8c0.3,0,0.4-0.1,0.5-0.1
				c0,0,0.1-0.1,0.1-0.3c0-0.1,0-0.2-0.1-0.3c0,0-0.1-0.1-0.4-0.1H3.3L3.3,7.8L3.3,7.8z"/>
			<path d="M4.1,5.3c0.6,0,1.1,0.2,1.4,0.5C5.8,6.2,6,6.7,6,7.4C6,8,5.8,8.6,5.5,8.9C5.1,9.3,4.6,9.5,3.9,9.5h-1V12H1.1V5.3H4.1
				 M2.9,8.2h0.4c0.3,0,0.6-0.1,0.7-0.2c0.1-0.1,0.2-0.3,0.2-0.5c0-0.2-0.1-0.4-0.2-0.5C4,6.8,3.7,6.7,3.4,6.7H2.9V8.2 M4.1,4.6H1.1
				c-0.4,0-0.8,0.3-0.8,0.8V12c0,0.4,0.3,0.8,0.8,0.8h1.8c0.4,0,0.8-0.3,0.8-0.8v-1.7h0.2c0.9,0,1.7-0.3,2.1-0.8
				c0.5-0.5,0.7-1.2,0.7-2.1c0-0.8-0.2-1.5-0.7-2C5.6,4.8,4.9,4.6,4.1,4.6L4.1,4.6z"/>
		</g>
		<g>
			<path class="st0" d="M9.8,12.4c-0.1,0-0.3-0.1-0.3-0.2l-0.9-2C8.4,9.9,8.3,9.8,8.3,9.8V12c0,0.2-0.2,0.4-0.4,0.4H6.1
				c-0.2,0-0.4-0.2-0.4-0.4V5.3C5.8,5.1,5.9,5,6.1,5h2.9c0.6,0,1.1,0.1,1.4,0.2c0.4,0.1,0.7,0.4,0.9,0.8c0.2,0.4,0.3,0.8,0.3,1.3
				c0,0.4-0.1,0.8-0.2,1.1c-0.2,0.3-0.4,0.6-0.7,0.8c0,0,0,0,0,0c0.1,0.1,0.1,0.2,0.2,0.3c0.1,0.2,0.2,0.4,0.3,0.5l0.9,1.9
				c0.1,0.1,0,0.2,0,0.4s-0.2,0.2-0.3,0.2H9.8z M8.7,7.6c0,0,0.1,0,0.4-0.1c0.1-0.1,0.1-0.2,0.1-0.2c0-0.1,0-0.2-0.1-0.2l0,0
				C9.1,7.1,9,7,8.7,7H8.3v0.6H8.7z"/>
			<path d="M9.1,5.3c0.5,0,1,0.1,1.3,0.2c0.3,0.1,0.5,0.3,0.7,0.6c0.2,0.3,0.3,0.7,0.3,1.1c0,0.4-0.1,0.7-0.2,1
				c-0.1,0.3-0.3,0.5-0.6,0.7C10.4,8.9,10.2,9,9.9,9c0.2,0.1,0.4,0.2,0.5,0.2c0.1,0.1,0.2,0.2,0.3,0.3c0.1,0.2,0.2,0.3,0.2,0.4
				l0.9,1.9h-2l-0.9-2C8.7,9.7,8.6,9.5,8.5,9.4C8.4,9.3,8.2,9.3,8.1,9.3H7.9V12H6.1V5.3H9.1 M7.9,8h0.7c0.1,0,0.2,0,0.5-0.1
				c0.1,0,0.2-0.1,0.3-0.2c0.1-0.1,0.1-0.2,0.1-0.4c0-0.2-0.1-0.4-0.2-0.5C9.2,6.7,9,6.7,8.7,6.7H7.9V8 M9.1,4.6H6.1
				c-0.4,0-0.8,0.3-0.8,0.8V12c0,0.4,0.3,0.8,0.8,0.8h1.8c0.4,0,0.8-0.3,0.8-0.8v-0.6l0.4,0.9c0.1,0.3,0.4,0.4,0.7,0.4h2
				c0.3,0,0.5-0.1,0.6-0.3s0.2-0.5,0.1-0.7l-0.9-1.9c-0.1-0.1-0.2-0.3-0.3-0.5c0,0,0,0,0,0c0.2-0.2,0.4-0.4,0.5-0.7
				C12,8.1,12,7.7,12,7.2c0-0.6-0.1-1.1-0.4-1.5C11.4,5.3,11,5,10.6,4.8C10.2,4.6,9.7,4.6,9.1,4.6L9.1,4.6z"/>
		</g>
		<g>
			<path class="st0" d="M14.2,12.5c-0.7,0-1.3-0.1-1.8-0.4c-0.5-0.3-0.9-0.7-1.2-1.3c-0.3-0.6-0.4-1.3-0.4-2.1
				c0-1.2,0.3-2.1,0.9-2.8c0.6-0.7,1.4-1,2.5-1c1.1,0,1.9,0.3,2.5,1c0.6,0.7,0.9,1.6,0.9,2.7c0,0.8-0.1,1.5-0.4,2.1
				c-0.3,0.6-0.6,1-1.1,1.3C15.5,12.3,14.9,12.5,14.2,12.5z M14.1,7.1c-0.2,0-0.4,0.1-0.6,0.3c-0.1,0.2-0.3,0.5-0.3,1.2
				c0,0.7,0.1,1.1,0.2,1.2c0.1,0.2,0.3,0.3,0.6,0.3c0.3,0,0.4-0.1,0.6-0.3C14.8,9.8,15,9.4,15,8.6c0-0.5-0.1-0.9-0.3-1.1
				C14.6,7.2,14.4,7.1,14.1,7.1z"/>
			<path d="M14.1,5.2c1,0,1.7,0.3,2.2,0.9c0.5,0.6,0.8,1.4,0.8,2.5c0,0.8-0.1,1.4-0.3,1.9c-0.2,0.5-0.6,0.9-1,1.2
				c-0.4,0.3-1,0.4-1.6,0.4c-0.6,0-1.2-0.1-1.6-0.4c-0.4-0.2-0.8-0.6-1-1.1c-0.3-0.5-0.4-1.2-0.4-1.9c0-1.1,0.3-1.9,0.8-2.5
				C12.5,5.5,13.2,5.2,14.1,5.2 M14.1,10.6c0.4,0,0.7-0.1,0.9-0.4c0.2-0.3,0.3-0.8,0.3-1.5c0-0.6-0.1-1.1-0.3-1.4
				c-0.2-0.3-0.5-0.4-0.9-0.4c-0.4,0-0.6,0.1-0.9,0.4C13,7.5,12.9,8,12.9,8.7c0,0.7,0.1,1.2,0.3,1.4C13.5,10.4,13.8,10.6,14.1,10.6
				 M14.1,4.5c-1.2,0-2.1,0.4-2.7,1.2c-0.6,0.7-1,1.8-1,3c0,0.9,0.2,1.7,0.5,2.3c0.3,0.6,0.8,1.1,1.3,1.4c0.5,0.3,1.2,0.5,2,0.5
				c0.8,0,1.5-0.2,2-0.5c0.5-0.4,1-0.9,1.3-1.5c0.3-0.6,0.4-1.3,0.4-2.2c0-1.3-0.3-2.3-1-3C16.2,4.9,15.3,4.5,14.1,4.5L14.1,4.5z
				 M14.1,9.8c-0.1,0-0.2,0-0.3-0.1c0-0.1-0.2-0.3-0.2-1c0-0.7,0.1-1,0.2-1C14,7.5,14,7.5,14.1,7.5c0.2,0,0.2,0,0.3,0.1
				c0.1,0.1,0.2,0.3,0.2,0.9c0,0.8-0.2,1.1-0.2,1.1C14.4,9.7,14.3,9.8,14.1,9.8L14.1,9.8z"/>
		</g>
		<g>
			<path class="st0" d="M19.2,12.5c-0.7,0-1.2-0.1-1.5-0.3c-0.4-0.2-0.7-0.5-0.9-1c-0.2-0.4-0.3-0.9-0.3-1.4c0-0.2,0.1-0.4,0.3-0.4
				l1.7-0.3c0,0,0,0,0.1,0c0.1,0,0.2,0,0.2,0.1c0.1,0.1,0.1,0.2,0.1,0.3c0,0.3,0,0.5,0.1,0.6c0,0.1,0.1,0.1,0.1,0.2
				c0.1,0,0.1,0,0.1-0.1c0-0.1,0.1-0.2,0.1-0.7V5.3c0-0.2,0.2-0.4,0.4-0.4h1.8c0.2,0,0.4,0.2,0.4,0.4v3.6c0,0.8-0.1,1.4-0.2,1.8
				c-0.1,0.5-0.4,0.9-0.8,1.2C20.4,12.3,19.8,12.5,19.2,12.5z"/>
			<path d="M21.4,5.3v3.6c0,0.8-0.1,1.3-0.2,1.7c-0.1,0.4-0.3,0.7-0.7,1c-0.3,0.3-0.8,0.4-1.3,0.4c-0.6,0-1-0.1-1.3-0.3
				c-0.3-0.2-0.6-0.4-0.7-0.8s-0.3-0.8-0.3-1.3l1.7-0.3c0,0.3,0,0.5,0.1,0.7c0,0.1,0.1,0.3,0.2,0.3c0.1,0.1,0.2,0.1,0.3,0.1
				c0.2,0,0.3-0.1,0.4-0.3c0.1-0.2,0.1-0.5,0.1-0.9V5.3H21.4 M21.4,4.6h-1.8c-0.4,0-0.8,0.3-0.8,0.8v3.5c-0.1-0.1-0.3-0.1-0.4-0.1
				c0,0-0.1,0-0.1,0L16.7,9C16.3,9,16,9.4,16.1,9.8c0,0.6,0.2,1.1,0.4,1.6c0.2,0.5,0.6,0.9,1,1.1c0.4,0.2,1,0.4,1.7,0.4
				c0.7,0,1.3-0.2,1.8-0.6c0.5-0.4,0.8-0.8,1-1.4c0.1-0.5,0.2-1.1,0.2-1.9V5.3C22.2,4.9,21.8,4.6,21.4,4.6L21.4,4.6z"/>
		</g>
		<g>
			<path class="st0" d="M21.8,12.4c-0.2,0-0.4-0.2-0.4-0.4V5.3c0-0.2,0.2-0.4,0.4-0.4h4.7c0.2,0,0.4,0.2,0.4,0.4v1.4
				c0,0.2-0.2,0.4-0.4,0.4h-2.6v0.3h2.4c0.2,0,0.4,0.2,0.4,0.4v1.4c0,0.2-0.2,0.4-0.4,0.4h-2.4v0.6h2.7c0.2,0,0.4,0.2,0.4,0.4V12
				c0,0.2-0.2,0.4-0.4,0.4H21.8z"/>
			<path d="M26.5,5.3v1.4h-3v1.1h2.8v1.4h-2.8v1.3h3.1V12h-4.8V5.3H26.5 M26.5,4.6h-4.7c-0.4,0-0.8,0.3-0.8,0.8V12
				c0,0.4,0.3,0.8,0.8,0.8h4.8c0.4,0,0.8-0.3,0.8-0.8v-1.5c0-0.4-0.2-0.7-0.6-0.7c0.2-0.1,0.3-0.3,0.3-0.6V7.8c0-0.2,0-0.3-0.1-0.4
				c0.2-0.1,0.3-0.4,0.3-0.6V5.3C27.3,4.9,26.9,4.6,26.5,4.6L26.5,4.6z"/>
		</g>
		<g>
			<path class="st0" d="M29.5,12.5c-0.7,0-1.3-0.1-1.7-0.4c-0.5-0.2-0.9-0.7-1.2-1.3c-0.3-0.6-0.5-1.3-0.5-2.2
				c0-1.2,0.3-2.1,0.8-2.8c0.6-0.7,1.4-1,2.4-1c0.8,0,1.5,0.2,1.9,0.6c0.5,0.4,0.8,1,1,1.7c0,0.1,0,0.2,0,0.3c0,0.1-0.1,0.2-0.2,0.2
				L30.6,8c0,0-0.1,0-0.1,0c-0.2,0-0.3-0.1-0.4-0.3C30.1,7.6,30,7.5,30,7.4c-0.1-0.1-0.1-0.2-0.2-0.2c-0.1-0.1-0.2-0.1-0.3-0.1
				c-0.3,0-0.4,0.1-0.6,0.4c-0.1,0.2-0.2,0.5-0.2,1.1c0,0.9,0.1,1.2,0.2,1.3c0.1,0.2,0.3,0.3,0.5,0.3c0.3,0,0.4-0.1,0.5-0.2
				c0.1-0.2,0.2-0.4,0.3-0.8c0-0.1,0.1-0.2,0.2-0.3c0.1,0,0.1-0.1,0.2-0.1c0,0,0.1,0,0.1,0l1.6,0.5c0.2,0.1,0.3,0.2,0.2,0.4
				c-0.1,0.5-0.3,1-0.5,1.4c-0.3,0.4-0.6,0.7-1,0.9C30.6,12.4,30.1,12.5,29.5,12.5z"/>
			<path d="M29.5,5.2c0.7,0,1.3,0.2,1.7,0.5c0.4,0.3,0.7,0.9,0.9,1.6l-1.6,0.4c-0.1-0.2-0.1-0.4-0.2-0.4C30.2,7.1,30.1,7,30,6.9
				c-0.1-0.1-0.3-0.1-0.5-0.1c-0.4,0-0.7,0.2-0.9,0.6c-0.2,0.3-0.2,0.7-0.2,1.3c0,0.7,0.1,1.2,0.3,1.5c0.2,0.3,0.5,0.4,0.8,0.4
				c0.3,0,0.6-0.1,0.8-0.3c0.2-0.2,0.3-0.5,0.4-1l1.6,0.5c-0.1,0.5-0.3,0.9-0.5,1.3c-0.2,0.3-0.5,0.6-0.8,0.8
				c-0.3,0.2-0.8,0.3-1.3,0.3c-0.6,0-1.1-0.1-1.5-0.3c-0.4-0.2-0.7-0.6-1-1.1c-0.3-0.5-0.4-1.2-0.4-2c0-1.1,0.3-1.9,0.8-2.5
				C27.8,5.5,28.5,5.2,29.5,5.2 M29.5,4.5c-1.1,0-2.1,0.4-2.7,1.2c-0.6,0.7-0.9,1.7-0.9,3c0,0.9,0.2,1.8,0.5,2.4
				c0.4,0.7,0.8,1.1,1.3,1.4c0.5,0.3,1.1,0.4,1.9,0.4c0.6,0,1.2-0.1,1.6-0.3c0.4-0.2,0.8-0.6,1.1-1c0.3-0.4,0.5-0.9,0.6-1.5
				c0.1-0.4-0.1-0.7-0.5-0.9l-1.6-0.5c-0.1,0-0.2,0-0.2,0c-0.1,0-0.3,0-0.4,0.1c-0.2,0.1-0.3,0.3-0.4,0.5c-0.1,0.4-0.2,0.6-0.2,0.6
				c0,0-0.1,0-0.2,0c-0.1,0-0.2,0-0.2-0.1c0,0-0.2-0.2-0.2-1.1c0-0.6,0.1-0.9,0.1-0.9c0.1-0.2,0.2-0.2,0.3-0.2c0.1,0,0.1,0,0.1,0
				c0,0,0.1,0.1,0.1,0.1c0,0,0,0.1,0.1,0.2c0.1,0.3,0.4,0.6,0.7,0.6c0.1,0,0.1,0,0.2,0L32.3,8c0.2-0.1,0.4-0.2,0.5-0.4
				c0.1-0.2,0.1-0.4,0.1-0.6c-0.2-0.8-0.6-1.5-1.2-1.9C31.1,4.7,30.4,4.5,29.5,4.5L29.5,4.5z"/>
		</g>
		<g>
			<path class="st0" d="M33.6,12.4c-0.2,0-0.4-0.2-0.4-0.4V7.3h-1.4c-0.2,0-0.4-0.2-0.4-0.4V5.3c0-0.2,0.2-0.4,0.4-0.4h5.4
				c0.2,0,0.4,0.2,0.4,0.4V7c0,0.2-0.2,0.4-0.4,0.4h-1.4V12c0,0.2-0.2,0.4-0.4,0.4H33.6z"/>
			<path d="M37.2,5.3V7h-1.8v5h-1.8V7h-1.8V5.3H37.2 M37.2,4.6h-5.4c-0.4,0-0.8,0.3-0.8,0.8V7c0,0.4,0.3,0.8,0.8,0.8h1.1V12
				c0,0.4,0.3,0.8,0.8,0.8h1.8c0.4,0,0.8-0.3,0.8-0.8V7.7h1.1c0.4,0,0.8-0.3,0.8-0.8V5.3C37.9,4.9,37.6,4.6,37.2,4.6L37.2,4.6z"/>
		</g>
	</g>
</g>
</svg>
