<?xml version="1.0" encoding="utf-8"?>
<!-- Generator: Adobe Illustrator 26.0.2, SVG Export Plug-In . SVG Version: 6.00 Build 0)  -->
<svg version="1.1"
	 id="svg3797" xmlns:cc="http://creativecommons.org/ns#" xmlns:dc="http://purl.org/dc/elements/1.1/" xmlns:inkscape="http://www.inkscape.org/namespaces/inkscape" xmlns:rdf="http://www.w3.org/1999/02/22-rdf-syntax-ns#" xmlns:sodipodi="http://sodipodi.sourceforge.net/DTD/sodipodi-0.dtd" xmlns:svg="http://www.w3.org/2000/svg"
	 xmlns="http://www.w3.org/2000/svg" xmlns:xlink="http://www.w3.org/1999/xlink" x="0px" y="0px" viewBox="0 0 38 16"
	 style="enable-background:new 0 0 38 16;" xml:space="preserve">
<style type="text/css">
	.st0{fill:#FFFFFF;}
</style>
<sodipodi:namedview  bordercolor="#666666" borderopacity="1.0" id="base" inkscape:current-layer="layer1" inkscape:cx="15.936484" inkscape:cy="7.769728" inkscape:document-units="px" inkscape:grid-bbox="true" inkscape:pageopacity="0.0" inkscape:pageshadow="2" inkscape:window-height="1001" inkscape:window-maximized="1" inkscape:window-width="1920" inkscape:window-x="-9" inkscape:window-y="-9" inkscape:zoom="11.197802" pagecolor="#ffffff" showgrid="true">
	<inkscape:grid  empspacing="5" enabled="true" id="grid3805" snapvisiblegridlinesonly="true" type="xygrid" visible="true">
		</inkscape:grid>
</sodipodi:namedview>
<g id="layer1" transform="translate(0,-16)" inkscape:groupmode="layer" inkscape:label="Layer 1">
	
		<path id="text3863" inkscape:original="M 36.835938 25.302734 L 36.835938 31.845703 L 38.523438 31.845703 L 38.523438 29.714844 L 39.572266 29.714844 C 40.049805 29.714844 40.448242 29.649414 40.767578 29.517578 C 41.089844 29.385742 41.381836 29.191406 41.642578 28.933594 C 41.833008 28.743164 41.979492 28.508789 42.082031 28.230469 C 42.18457 27.949219 42.236328 27.660156 42.236328 27.367188 C 42.236328 26.989258 42.166016 26.666016 42.025391 26.396484 C 41.887695 26.126953 41.685547 25.907227 41.421875 25.734375 C 41.202148 25.59082 40.949219 25.482422 40.662109 25.412109 C 40.37793 25.338867 40.029297 25.302734 39.613281 25.302734 L 36.835938 25.302734 z M 49.619141 25.5 L 49.619141 26.910156 L 48.96875 26.910156 L 48.96875 27.984375 L 49.619141 27.984375 L 49.619141 30.291016 C 49.619141 30.894531 49.767578 31.321289 50.066406 31.570312 C 50.368164 31.819336 50.826172 31.943359 51.441406 31.943359 C 51.716797 31.943359 51.950195 31.928711 52.140625 31.902344 C 52.331055 31.878906 52.511719 31.84668 52.681641 31.802734 L 52.681641 30.716797 L 52.550781 30.716797 C 52.498047 30.746094 52.404297 30.777344 52.269531 30.8125 C 52.137695 30.847656 52.029297 30.867188 51.947266 30.867188 C 51.748047 30.867188 51.595703 30.835938 51.490234 30.777344 C 51.387695 30.71582 51.316406 30.633789 51.275391 30.53125 C 51.231445 30.428711 51.208008 30.314453 51.205078 30.185547 C 51.202148 30.056641 51.201172 29.905273 51.201172 29.732422 L 51.201172 27.984375 L 52.681641 27.984375 L 52.681641 26.910156 L 51.201172 26.910156 L 51.201172 25.5 L 49.619141 25.5 z M 38.523438 26.523438 L 38.8125 26.523438 C 39.09082 26.523438 39.313477 26.52832 39.480469 26.537109 C 39.647461 26.542969 39.818359 26.582031 39.994141 26.652344 C 40.125977 26.705078 40.242188 26.798828 40.341797 26.933594 C 40.441406 27.06543 40.492188 27.223633 40.492188 27.408203 C 40.492188 27.595703 40.46582 27.754883 40.416016 27.886719 C 40.369141 28.015625 40.291992 28.126953 40.183594 28.220703 C 40.057617 28.326172 39.900391 28.396484 39.712891 28.431641 C 39.52832 28.466797 39.292969 28.484375 39.005859 28.484375 L 38.523438 28.484375 L 38.523438 26.523438 z M 45.681641 26.757812 C 44.832031 26.757812 44.168945 26.991211 43.691406 27.457031 C 43.216797 27.922852 42.978516 28.563477 42.978516 29.380859 C 42.978516 30.192383 43.213867 30.832031 43.685547 31.300781 C 44.160156 31.766602 44.826172 32 45.681641 32 C 46.537109 32 47.200195 31.766602 47.671875 31.300781 C 48.146484 30.832031 48.382812 30.192383 48.382812 29.380859 C 48.382812 28.569336 48.147461 27.929688 47.675781 27.460938 C 47.207031 26.992188 46.542969 26.757812 45.681641 26.757812 z M 60.546875 26.757812 C 59.676758 26.757812 58.993164 26.995117 58.492188 27.472656 C 57.994141 27.947266 57.744141 28.591797 57.744141 29.40625 C 57.744141 30.229492 58.007812 30.865234 58.535156 31.310547 C 59.0625 31.755859 59.822266 31.978516 60.8125 31.978516 C 61.196289 31.978516 61.544922 31.945312 61.861328 31.880859 C 62.177734 31.816406 62.515625 31.713867 62.873047 31.570312 L 62.873047 30.298828 L 62.697266 30.298828 C 62.515625 30.436523 62.266602 30.56543 61.953125 30.685547 C 61.639648 30.805664 61.316406 30.867188 60.982422 30.867188 C 60.455078 30.867188 60.055664 30.763672 59.783203 30.558594 C 59.513672 30.353516 59.367188 30.058594 59.34375 29.671875 L 62.964844 29.671875 L 62.964844 29.117188 C 62.964844 28.355469 62.763672 27.771484 62.359375 27.367188 C 61.955078 26.959961 61.349609 26.757812 60.546875 26.757812 z M 66.523438 26.757812 C 65.65332 26.757812 64.969727 26.995117 64.46875 27.472656 C 63.970703 27.947266 63.720703 28.591797 63.720703 29.40625 C 63.720703 30.229492 63.984375 30.865234 64.511719 31.310547 C 65.039062 31.755859 65.798828 31.978516 66.789062 31.978516 C 67.172852 31.978516 67.521484 31.945312 67.837891 31.880859 C 68.154297 31.816406 68.492188 31.713867 68.849609 31.570312 L 68.849609 30.298828 L 68.673828 30.298828 C 68.492188 30.436523 68.243164 30.56543 67.929688 30.685547 C 67.616211 30.805664 67.292969 30.867188 66.958984 30.867188 C 66.431641 30.867188 66.032227 30.763672 65.759766 30.558594 C 65.490234 30.353516 65.34375 30.058594 65.320312 29.671875 L 68.941406 29.671875 L 68.941406 29.117188 C 68.941406 28.355469 68.740234 27.771484 68.335938 27.367188 C 67.931641 26.959961 67.326172 26.757812 66.523438 26.757812 z M 56.826172 26.894531 C 56.609375 26.894531 56.371094 26.943359 56.113281 27.042969 C 55.855469 27.139648 55.551758 27.337891 55.203125 27.636719 L 55.203125 26.910156 L 53.621094 26.910156 L 53.621094 31.845703 L 55.203125 31.845703 L 55.203125 28.541016 C 55.402344 28.470703 55.588867 28.421875 55.761719 28.392578 C 55.93457 28.363281 56.133789 28.347656 56.359375 28.347656 C 56.458984 28.347656 56.584961 28.353516 56.734375 28.365234 C 56.883789 28.376953 56.991211 28.394531 57.058594 28.417969 L 57.199219 28.417969 L 57.199219 26.910156 C 57.146484 26.904297 57.085938 26.901367 57.015625 26.898438 C 56.945312 26.895508 56.881836 26.894531 56.826172 26.894531 z M 60.419922 27.746094 C 60.748047 27.746094 60.989258 27.829102 61.144531 27.996094 C 61.299805 28.163086 61.381836 28.413086 61.390625 28.744141 L 59.339844 28.744141 C 59.363281 28.395508 59.47168 28.142578 59.667969 27.984375 C 59.864258 27.826172 60.115234 27.746094 60.419922 27.746094 z M 66.396484 27.746094 C 66.724609 27.746094 66.96582 27.829102 67.121094 27.996094 C 67.276367 28.163086 67.358398 28.413086 67.367188 28.744141 L 65.316406 28.744141 C 65.339844 28.395508 65.448242 28.142578 65.644531 27.984375 C 65.84082 27.826172 66.091797 27.746094 66.396484 27.746094 z M 45.681641 27.859375 C 45.833984 27.859375 45.975586 27.885742 46.107422 27.935547 C 46.239258 27.985352 46.351562 28.069336 46.445312 28.189453 C 46.539062 28.306641 46.613281 28.463867 46.666016 28.660156 C 46.71875 28.856445 46.744141 29.100586 46.744141 29.390625 C 46.744141 29.704102 46.71875 29.950195 46.666016 30.128906 C 46.616211 30.304688 46.540039 30.454102 46.4375 30.580078 C 46.34668 30.694336 46.235352 30.776367 46.103516 30.826172 C 45.974609 30.873047 45.838867 30.896484 45.695312 30.896484 C 45.52832 30.896484 45.37793 30.871094 45.246094 30.818359 C 45.117188 30.765625 45.005859 30.680664 44.912109 30.566406 C 44.81543 30.446289 44.741211 30.290039 44.691406 30.09375 C 44.641602 29.894531 44.617188 29.660156 44.617188 29.390625 C 44.617188 29.088867 44.645508 28.837891 44.701172 28.638672 C 44.759766 28.439453 44.836914 28.282227 44.933594 28.167969 C 45.041992 28.044922 45.15625 27.962891 45.273438 27.921875 C 45.393555 27.880859 45.529297 27.859375 45.681641 27.859375 z " inkscape:radius="0.99456364" sodipodi:type="inkscape:offset" d="
		M2.9,20.2c-0.5,0-1,0.4-1,1v6.5c0,0.5,0.4,1,1,1h1.7c0.5,0,1-0.4,1-1v-1.1h0.1c0.6,0,1.1-0.1,1.6-0.3c0.3-0.1,0.6-0.4,0.9-0.6
		c0.1,0.8,0.4,1.6,0.9,2.2l0,0c0.7,0.7,1.7,1,2.7,1s2-0.3,2.7-1c0.2-0.2,0.3-0.4,0.4-0.7c0.1,0.4,0.3,0.7,0.6,1l0,0
		c0.6,0.5,1.3,0.6,2,0.6c0.3,0,0.6,0,0.8,0l0,0c0.2,0,0.4-0.1,0.7-0.1c0.1,0,0.1,0,0.2-0.1c0.2,0.1,0.3,0.1,0.5,0.1h1.6
		c0.5,0,1-0.4,1-1v-2.5c0.1,0,0.1,0,0.2,0s0.2,0,0.3,0c0.1,0,0.2,0,0.1,0l0,0l0,0c0,1,0.4,2,1.1,2.7c0.8,0.6,1.8,0.9,2.9,0.9
		c0.4,0,0.9,0,1.2-0.1c0.4-0.1,0.8-0.2,1.2-0.4c0.2-0.1,0.4-0.3,0.5-0.5c0,0,0,0.1,0.1,0.1c0.8,0.6,1.8,0.9,2.9,0.9
		c0.4,0,0.9,0,1.2-0.1c0.4-0.1,0.8-0.2,1.2-0.4c0.4-0.2,0.6-0.5,0.6-0.9v-1.3c0-0.1,0-0.1,0-0.2c0.1-0.1,0.1-0.3,0.1-0.5V25
		c0-0.9-0.3-1.8-0.9-2.5c-0.6-0.6-1.5-0.9-2.5-0.9c-1.1,0-2,0.3-2.7,1c-0.2,0.1-0.2,0.3-0.3,0.5c-0.1-0.2-0.2-0.4-0.4-0.6
		c-0.6-0.6-1.5-0.9-2.5-0.9c-0.9,0-1.7,0.3-2.4,0.8c-0.1-0.3-0.4-0.6-0.8-0.6c-0.1,0-0.2,0-0.3,0c-0.1,0-0.2,0-0.2,0
		c-0.4,0-0.7,0.1-1,0.2c-0.2-0.1-0.4-0.2-0.6-0.2h-1.6c-0.2,0-0.3,0-0.5,0.1c-0.1-0.1-0.3-0.1-0.5-0.1h-0.5v-0.4c0-0.5-0.4-1-1-1
		h-1.6c-0.5,0-1,0.4-1,1v0.5c-0.3,0.1-0.5,0.3-0.6,0.6c-0.7-0.5-1.5-0.8-2.4-0.8c-1,0-1.9,0.3-2.6,0.9c-0.1-0.3,0-0.5-0.2-0.8
		c-0.2-0.4-0.6-0.8-0.9-1c-0.3-0.2-0.7-0.4-1.1-0.5l0,0c-0.4-0.1-0.8-0.1-1.3-0.1H2.9z M11.7,24.7L11.7,24.7L11.7,24.7L11.7,24.7
		c0,0.1,0.1,0.3,0.1,0.5c0,0.3,0,0.4,0,0.5l0,0l0,0l0,0l0,0l0,0c0-0.1,0-0.3,0-0.5C11.6,25,11.7,24.9,11.7,24.7L11.7,24.7L11.7,24.7
		L11.7,24.7z M18.2,24.8h0.4v0.7h-0.1c-0.1,0-0.2,0-0.4,0.1c0,0,0,0,0-0.1v-0.7H18.2z"/>
	<g id="text852">
		<path id="path4559" class="st0" d="M8.3,23.2c0,0.3-0.1,0.6-0.2,0.9c-0.1,0.3-0.2,0.5-0.4,0.7c-0.3,0.3-0.6,0.5-0.9,0.6
			s-0.7,0.2-1.2,0.2H4.5v2.1H2.9v-6.5h2.8c0.4,0,0.8,0,1.1,0.1c0.3,0.1,0.5,0.2,0.8,0.3C7.7,21.8,7.9,22,8,22.3
			C8.2,22.5,8.3,22.9,8.3,23.2z M6.5,23.3c0-0.2,0-0.3-0.1-0.5c-0.1-0.1-0.2-0.2-0.3-0.3c-0.2-0.1-0.3-0.1-0.5-0.1s-0.4,0-0.7,0H4.5
			v2H5c0.3,0,0.5,0,0.7-0.1c0.2,0,0.3-0.1,0.5-0.2c0.1-0.1,0.2-0.2,0.2-0.3C6.5,23.6,6.5,23.5,6.5,23.3z"/>
		<path id="path4561" class="st0" d="M14.4,25.2c0,0.8-0.2,1.5-0.7,1.9c-0.5,0.5-1.1,0.7-2,0.7s-1.5-0.2-2-0.7
			c-0.5-0.4-0.7-1-0.7-1.9c0-0.8,0.2-1.5,0.7-1.9c0.5-0.5,1.1-0.7,2-0.7s1.5,0.2,2,0.7C14.2,23.8,14.4,24.4,14.4,25.2z M12.5,26.4
			c0.1-0.1,0.2-0.3,0.2-0.5c0.1-0.2,0.1-0.4,0.1-0.7c0-0.3,0-0.5-0.1-0.7s-0.1-0.4-0.2-0.5c-0.1-0.1-0.2-0.2-0.3-0.3
			c-0.1,0-0.3-0.1-0.4-0.1c-0.2,0-0.3,0-0.4,0.1c-0.1,0-0.2,0.1-0.3,0.2s-0.2,0.3-0.2,0.5c-0.1,0.2-0.1,0.4-0.1,0.8
			c0,0.3,0,0.5,0.1,0.7c0,0.2,0.1,0.4,0.2,0.5c0.1,0.1,0.2,0.2,0.3,0.3c0.1,0.1,0.3,0.1,0.4,0.1c0.1,0,0.3,0,0.4-0.1
			C12.3,26.6,12.4,26.6,12.5,26.4z"/>
		<path id="path4563" class="st0" d="M18.7,27.7c-0.2,0-0.4,0.1-0.5,0.1c-0.2,0-0.4,0-0.7,0c-0.6,0-1.1-0.1-1.4-0.4
			c-0.3-0.2-0.4-0.7-0.4-1.3v-2.3H15v-1.1h0.7v-1.4h1.6v1.4h1.5v1.1h-1.5v1.7c0,0.2,0,0.3,0,0.5s0,0.2,0.1,0.3
			c0,0.1,0.1,0.2,0.2,0.2c0.1,0.1,0.3,0.1,0.5,0.1c0.1,0,0.2,0,0.3-0.1c0.1,0,0.2-0.1,0.3-0.1h0.1L18.7,27.7z"/>
		<path id="path4565" class="st0" d="M23.2,24.3h-0.1c-0.1,0-0.2,0-0.3-0.1c-0.1,0-0.3,0-0.4,0c-0.2,0-0.4,0-0.6,0s-0.4,0.1-0.6,0.1
			v3.3h-1.6v-4.9h1.6v0.7c0.3-0.3,0.7-0.5,0.9-0.6c0.3-0.1,0.5-0.1,0.7-0.1c0.1,0,0.1,0,0.2,0s0.1,0,0.2,0
			C23.2,22.7,23.2,24.3,23.2,24.3z"/>
		<path id="path4567" class="st0" d="M29,25.5h-3.6c0,0.4,0.2,0.7,0.4,0.9c0.3,0.2,0.7,0.3,1.2,0.3c0.3,0,0.7-0.1,1-0.2
			s0.6-0.2,0.7-0.4h0.2v1.3c-0.4,0.1-0.7,0.2-1,0.3s-0.7,0.1-1.1,0.1c-1,0-1.7-0.2-2.3-0.7s-0.8-1.1-0.8-1.9s0.2-1.5,0.7-1.9
			c0.5-0.5,1.2-0.7,2.1-0.7c0.8,0,1.4,0.2,1.8,0.6s0.6,1,0.6,1.7L29,25.5L29,25.5z M27.4,24.6c0-0.3-0.1-0.6-0.2-0.7
			c-0.2-0.2-0.4-0.3-0.7-0.3c-0.3,0-0.6,0.1-0.8,0.2s-0.3,0.4-0.3,0.8H27.4z"/>
		<path id="path4569" class="st0" d="M35,25.5h-3.6c0,0.4,0.2,0.7,0.4,0.9c0.3,0.2,0.7,0.3,1.2,0.3c0.3,0,0.7-0.1,1-0.2
			s0.6-0.2,0.7-0.4h0.2v1.3c-0.4,0.1-0.7,0.2-1,0.3s-0.7,0.1-1.1,0.1c-1,0-1.7-0.2-2.3-0.7s-0.8-1.1-0.8-1.9s0.2-1.5,0.7-1.9
			c0.5-0.5,1.2-0.7,2.1-0.7c0.8,0,1.4,0.2,1.8,0.6c0.4,0.4,0.6,1,0.6,1.7L35,25.5L35,25.5z M33.4,24.6c0-0.3-0.1-0.6-0.2-0.7
			c-0.2-0.2-0.4-0.3-0.7-0.3s-0.6,0.1-0.8,0.2s-0.3,0.4-0.3,0.8H33.4z"/>
	</g>
</g>
</svg>
